<svg width="116" height="39" viewBox="0 0 116 39" fill="none" xmlns="http://www.w3.org/2000/svg">
<path d="M8.1 30.36C6.72 30.36 5.5 30.15 4.44 29.73C3.38 29.29 2.55 28.66 1.95 27.84C1.35 27 1.05 26 1.05 24.84C1.05 24.64 1.06 24.45 1.08 24.27C1.1 24.07 1.12 23.87 1.14 23.67H5.22C5.2 23.89 5.19 24.09 5.19 24.27C5.19 25.13 5.49 25.83 6.09 26.37C6.71 26.89 7.54 27.15 8.58 27.15C9.74 27.15 10.65 26.86 11.31 26.28C11.97 25.68 12.3 24.9 12.3 23.94C12.3 23.22 12.05 22.65 11.55 22.23C11.05 21.81 10.41 21.46 9.63 21.18C8.87 20.9 8.07 20.61 7.23 20.31C5.91 19.83 4.9 19.17 4.2 18.33C3.5 17.49 3.15 16.5 3.15 15.36C3.15 14.02 3.49 12.85 4.17 11.85C4.87 10.83 5.82 10.04 7.02 9.48C8.24 8.92 9.64 8.64 11.22 8.64C13.12 8.64 14.65 9.1 15.81 10.02C16.97 10.94 17.55 12.19 17.55 13.77C17.55 13.91 17.54 14.06 17.52 14.22C17.52 14.38 17.51 14.54 17.49 14.7H13.38C13.4 14.52 13.41 14.35 13.41 14.19C13.41 13.57 13.17 13.03 12.69 12.57C12.21 12.11 11.51 11.88 10.59 11.88C9.57 11.88 8.76 12.15 8.16 12.69C7.58 13.21 7.29 13.87 7.29 14.67C7.29 15.29 7.49 15.79 7.89 16.17C8.29 16.53 8.83 16.85 9.51 17.13C10.19 17.39 10.94 17.67 11.76 17.97C12.62 18.27 13.4 18.67 14.1 19.17C14.82 19.65 15.39 20.24 15.81 20.94C16.25 21.64 16.47 22.47 16.47 23.43C16.47 24.83 16.11 26.05 15.39 27.09C14.67 28.13 13.68 28.94 12.42 29.52C11.16 30.08 9.72 30.36 8.1 30.36ZM23.7455 30.36C22.0655 30.36 20.8355 29.98 20.0555 29.22C19.2755 28.44 18.8855 27.51 18.8855 26.43C18.8855 24.83 19.5555 23.56 20.8955 22.62C22.2355 21.68 24.0255 21.21 26.2655 21.21H30.0455L30.1055 20.85C30.1255 20.73 30.1355 20.61 30.1355 20.49C30.1555 20.35 30.1655 20.23 30.1655 20.13C30.1655 19.37 29.9255 18.81 29.4455 18.45C28.9655 18.07 28.3555 17.88 27.6155 17.88C26.8355 17.88 26.1155 18.07 25.4555 18.45C24.8155 18.81 24.3555 19.35 24.0755 20.07H20.3255C20.6255 18.99 21.1455 18.05 21.8855 17.25C22.6455 16.45 23.5655 15.84 24.6455 15.42C25.7255 14.98 26.8955 14.76 28.1555 14.76C29.9955 14.76 31.4355 15.17 32.4755 15.99C33.5355 16.81 34.0655 17.99 34.0655 19.53C34.0655 19.73 34.0555 19.95 34.0355 20.19C34.0155 20.41 33.9855 20.63 33.9455 20.85L32.3255 30H28.9055L29.0555 27.69C28.4755 28.45 27.7455 29.09 26.8655 29.61C26.0055 30.11 24.9655 30.36 23.7455 30.36ZM25.1555 27.36C26.2555 27.36 27.1655 27 27.8855 26.28C28.6255 25.56 29.1655 24.67 29.5055 23.61H26.2655C25.2655 23.61 24.4755 23.81 23.8955 24.21C23.3155 24.61 23.0255 25.16 23.0255 25.86C23.0255 26.36 23.2155 26.74 23.5955 27C23.9955 27.24 24.5155 27.36 25.1555 27.36ZM42.2613 30.36C40.9013 30.36 39.7413 30.13 38.7813 29.67C37.8413 29.21 37.1313 28.58 36.6513 27.78C36.1713 26.98 35.9713 26.07 36.0513 25.05H39.8913C39.8713 25.75 40.1013 26.32 40.5813 26.76C41.0613 27.2 41.7813 27.42 42.7413 27.42C43.5813 27.42 44.2313 27.24 44.6913 26.88C45.1713 26.52 45.4113 26.06 45.4113 25.5C45.4113 25 45.1613 24.64 44.6613 24.42C44.1613 24.18 43.5213 23.97 42.7413 23.79C41.9213 23.59 41.1213 23.33 40.3413 23.01C39.5613 22.69 38.9113 22.27 38.3913 21.75C37.8913 21.23 37.6413 20.56 37.6413 19.74C37.6413 18.78 37.9213 17.93 38.4813 17.19C39.0613 16.43 39.8513 15.84 40.8513 15.42C41.8513 14.98 43.0013 14.76 44.3013 14.76C46.0613 14.76 47.4513 15.18 48.4713 16.02C49.4913 16.86 49.9813 18 49.9413 19.44H46.2513C46.2313 18.92 46.0013 18.5 45.5613 18.18C45.1413 17.86 44.5813 17.7 43.8813 17.7C43.1613 17.7 42.5713 17.86 42.1113 18.18C41.6713 18.48 41.4513 18.86 41.4513 19.32C41.4513 19.76 41.7113 20.1 42.2313 20.34C42.7713 20.56 43.4713 20.77 44.3313 20.97C45.2713 21.19 46.1113 21.46 46.8513 21.78C47.6113 22.1 48.2113 22.52 48.6513 23.04C49.1113 23.54 49.3413 24.2 49.3413 25.02C49.3413 26.1 49.0313 27.04 48.4113 27.84C47.7913 28.64 46.9413 29.26 45.8613 29.7C44.8013 30.14 43.6013 30.36 42.2613 30.36ZM52.1053 30L54.7153 15.12H58.1653L58.0453 17.82C58.7453 16.9 59.6053 16.16 60.6253 15.6C61.6653 15.04 62.8153 14.76 64.0753 14.76L63.3553 18.81H62.3053C61.0253 18.81 59.9253 19.11 59.0053 19.71C58.0853 20.29 57.4853 21.37 57.2053 22.95L55.9453 30H52.1053ZM69.6949 12.9C68.9949 12.9 68.4149 12.69 67.9549 12.27C67.5149 11.83 67.2949 11.29 67.2949 10.65C67.2949 10.01 67.5149 9.48 67.9549 9.06C68.4149 8.62 68.9949 8.4 69.6949 8.4C70.3949 8.4 70.9649 8.62 71.4049 9.06C71.8649 9.48 72.0949 10.01 72.0949 10.65C72.0949 11.29 71.8649 11.83 71.4049 12.27C70.9649 12.69 70.3949 12.9 69.6949 12.9ZM64.3549 30L66.9649 15.12H70.8049L68.1949 30H64.3549ZM79.4609 30.36C78.1409 30.36 76.9909 30.1 76.0109 29.58C75.0309 29.04 74.2709 28.29 73.7309 27.33C73.2109 26.37 72.9509 25.25 72.9509 23.97C72.9509 22.69 73.1809 21.49 73.6409 20.37C74.1009 19.25 74.7509 18.27 75.5909 17.43C76.4309 16.59 77.4109 15.94 78.5309 15.48C79.6509 15 80.8709 14.76 82.1909 14.76C84.1109 14.76 85.6409 15.27 86.7809 16.29C87.9409 17.31 88.5209 18.72 88.5209 20.52H84.4709C84.4709 19.72 84.2009 19.11 83.6609 18.69C83.1209 18.25 82.4409 18.03 81.6209 18.03C80.7609 18.03 79.9709 18.28 79.2509 18.78C78.5309 19.26 77.9609 19.92 77.5409 20.76C77.1209 21.6 76.9109 22.55 76.9109 23.61C76.9109 24.67 77.2009 25.52 77.7809 26.16C78.3609 26.78 79.1109 27.09 80.0309 27.09C80.8509 27.09 81.6009 26.88 82.2809 26.46C82.9809 26.02 83.4809 25.4 83.7809 24.6H87.8009C87.3809 25.76 86.7609 26.77 85.9409 27.63C85.1209 28.49 84.1509 29.16 83.0309 29.64C81.9309 30.12 80.7409 30.36 79.4609 30.36ZM97.4505 30.36C96.1505 30.36 95.0105 30.07 94.0305 29.49C93.0505 28.91 92.2805 28.13 91.7205 27.15C91.1805 26.15 90.9105 25.01 90.9105 23.73C90.9105 22.47 91.1305 21.3 91.5705 20.22C92.0305 19.12 92.6605 18.16 93.4605 17.34C94.2805 16.52 95.2305 15.89 96.3105 15.45C97.3905 14.99 98.5505 14.76 99.7905 14.76C101.111 14.76 102.261 15.04 103.241 15.6C104.241 16.16 105.021 16.93 105.581 17.91C106.141 18.89 106.421 20.03 106.421 21.33C106.421 22.61 106.191 23.8 105.731 24.9C105.271 25.98 104.631 26.93 103.811 27.75C103.011 28.57 102.061 29.21 100.961 29.67C99.8805 30.13 98.7105 30.36 97.4505 30.36ZM97.9605 27.03C98.8205 27.03 99.5905 26.79 100.271 26.31C100.951 25.83 101.491 25.18 101.891 24.36C102.291 23.52 102.491 22.58 102.491 21.54C102.491 20.44 102.181 19.59 101.561 18.99C100.961 18.39 100.231 18.09 99.3705 18.09C98.5305 18.09 97.7605 18.33 97.0605 18.81C96.3805 19.29 95.8405 19.95 95.4405 20.79C95.0405 21.61 94.8405 22.54 94.8405 23.58C94.8405 24.68 95.1405 25.53 95.7405 26.13C96.3605 26.73 97.1005 27.03 97.9605 27.03Z" fill="white"/>
<path d="M110.483 30.21C109.763 30.21 109.183 29.99 108.743 29.55C108.303 29.11 108.083 28.58 108.083 27.96C108.083 27.32 108.303 26.78 108.743 26.34C109.183 25.9 109.763 25.68 110.483 25.68C111.183 25.68 111.753 25.9 112.193 26.34C112.633 26.78 112.853 27.32 112.853 27.96C112.853 28.58 112.633 29.11 112.193 29.55C111.753 29.99 111.183 30.21 110.483 30.21Z" fill="#FF4847"/>
</svg>
