<svg xmlns="http://www.w3.org/2000/svg" width="41" height="41" fill="none" viewBox="0 0 41 41">
  <g clip-path="url(#a)" opacity=".2">
    <path fill="#1F2128" fill-rule="evenodd" d="M20.556 38.031c9.772 0 17.695-7.922 17.695-17.694 0-9.773-7.922-17.695-17.695-17.695S2.861 10.564 2.861 20.337c0 9.772 7.922 17.694 17.695 17.694Zm0 2.052c10.905 0 19.746-8.84 19.746-19.746C40.302 9.43 31.462.59 20.556.59 9.651.59.81 9.43.81 20.337c0 10.905 8.84 19.746 19.746 19.746Z" clip-rule="evenodd"/>
    <path fill="#fff" fill-opacity=".45" fill-rule="evenodd" d="M20.556 38.031c9.772 0 17.695-7.922 17.695-17.694 0-9.773-7.922-17.695-17.695-17.695S2.861 10.564 2.861 20.337c0 9.772 7.922 17.694 17.695 17.694Zm0 2.052c10.905 0 19.746-8.84 19.746-19.746C40.302 9.43 31.462.59 20.556.59 9.651.59.81 9.43.81 20.337c0 10.905 8.84 19.746 19.746 19.746Z" clip-rule="evenodd"/>
  </g>
  <defs>
    <clipPath id="a">
      <path fill="#fff" d="M.81.41h40v40h-40z"/>
    </clipPath>
  </defs>
</svg>
