<svg xmlns="http://www.w3.org/2000/svg" width="80" height="80" fill="none" viewBox="0 0 80 80">
  <g clip-path="url(#a)">
    <path fill="#CFD2DD" d="m40 0 3.902 20.384 11.405-17.34-4.196 20.327 17.173-11.655L56.63 28.889l20.326-4.196-17.34 11.405L80 40l-20.384 3.902 17.34 11.405-20.327-4.196 11.655 17.173L51.111 56.63l4.196 20.326-11.405-17.34L40 80l-3.902-20.384-11.405 17.34 4.196-20.327-17.173 11.655L23.37 51.111 3.045 55.307l17.34-11.405L0 40l20.384-3.902-17.34-11.405 20.327 4.196-11.655-17.173L28.889 23.37 24.693 3.045l11.405 17.34L40 0Z"/>
  </g>
  <defs>
    <clipPath id="a">
      <path fill="#fff" d="M0 0h80v80H0z"/>
    </clipPath>
  </defs>
</svg>
